<?xml version="1.0" standalone="no"?>
<!DOCTYPE svg PUBLIC "-//W3C//DTD SVG 20010904//EN"
 "http://www.w3.org/TR/2001/REC-SVG-20010904/DTD/svg10.dtd">
<svg version="1.0" xmlns="http://www.w3.org/2000/svg"
 width="990.000000pt" height="600.000000pt" viewBox="0 0 990.000000 600.000000"
 preserveAspectRatio="xMidYMid meet">
<metadata>
Created by potrace 1.15, written by Peter Selinger 2001-2017
</metadata>
<g transform="translate(0.000000,600.000000) scale(0.100000,-0.100000)"
fill="#000000" stroke="none">
<path d="M8539 5590 c-40 -21 -106 -114 -116 -163 -3 -18 -19 -58 -35 -91 -16
-32 -56 -138 -88 -235 -122 -369 -173 -576 -205 -831 -19 -154 -21 -158 -150
-278 -97 -91 -194 -142 -268 -142 -53 0 -57 2 -99 49 -45 49 -78 134 -91 233
-6 43 4 50 78 53 58 1 163 52 197 94 17 22 19 36 16 98 -6 85 -28 126 -92 166
-100 63 -192 41 -267 -64 -19 -27 -49 -122 -49 -156 0 -8 -11 -28 -24 -44 -14
-16 -37 -68 -51 -117 -15 -48 -43 -116 -62 -152 -55 -102 -224 -320 -248 -320
-11 0 -58 91 -69 135 -3 11 -17 97 -31 190 -28 191 -32 318 -11 398 17 67 12
98 -24 132 -64 62 -173 16 -173 -72 0 -22 5 -55 11 -74 71 -228 26 -631 -99
-881 -28 -57 -60 -113 -71 -125 -20 -22 -21 -22 -57 -4 -44 23 -80 72 -156
216 -53 100 -81 181 -106 303 -12 62 -58 141 -91 158 -40 21 -101 18 -131 -7
-34 -26 -89 -142 -163 -343 -59 -156 -59 -157 -65 -114 -13 87 -29 126 -72
172 -38 41 -48 46 -86 46 -23 0 -55 -7 -70 -15 -32 -16 -76 -96 -67 -120 8
-22 -155 -478 -192 -536 -12 -19 -42 -68 -67 -109 -25 -41 -56 -88 -69 -103
l-23 -28 -16 38 c-24 57 -38 137 -42 245 -3 80 -1 102 16 134 10 21 19 52 19
69 0 54 -63 102 -118 89 -83 -20 -112 -113 -77 -248 l15 -58 -56 -127 c-71
-160 -107 -219 -192 -315 -66 -74 -173 -157 -219 -171 -21 -6 -23 -3 -23 29 0
48 73 187 133 252 26 29 67 62 91 74 49 23 70 44 81 80 4 13 24 48 43 78 26
39 37 67 40 107 4 50 2 57 -26 85 -29 28 -35 30 -107 30 -71 0 -78 -2 -106
-30 -29 -29 -30 -30 -25 -119 4 -87 3 -92 -24 -130 -16 -21 -44 -50 -62 -64
-46 -34 -244 -142 -307 -167 -135 -53 -422 -217 -471 -269 -19 -21 -71 -66
-115 -102 -44 -35 -102 -84 -130 -108 -113 -99 -325 -233 -760 -481 -29 -17 1
18 112 131 163 165 454 500 535 614 79 112 217 324 237 364 17 32 49 138 71
230 9 37 -11 130 -36 169 -25 38 -152 112 -263 154 -58 22 -173 54 -256 71
-140 29 -163 31 -360 32 -206 0 -213 -1 -383 -38 -204 -45 -237 -55 -442 -133
-171 -65 -407 -193 -538 -292 -55 -42 -92 -61 -130 -70 -61 -14 -122 -52 -175
-111 -49 -54 -52 -108 -8 -152 72 -72 200 -1 269 149 20 44 39 65 101 111 73
54 163 111 175 111 3 0 6 -17 6 -37 0 -63 27 -167 58 -229 16 -33 37 -95 46
-139 23 -110 92 -352 191 -660 72 -226 90 -290 111 -402 10 -54 88 -74 118
-31 23 32 20 56 -10 100 -42 60 -284 830 -324 1028 -8 45 -8 71 5 129 19 93
20 270 1 316 l-15 34 127 49 c188 73 299 106 477 143 148 31 174 33 345 33
169 0 198 -3 338 -32 179 -37 297 -80 368 -132 44 -33 52 -45 67 -99 23 -81
22 -106 -8 -199 -26 -84 -105 -223 -216 -382 -168 -241 -592 -695 -891 -955
-123 -107 -134 -114 -429 -271 -167 -89 -356 -185 -419 -214 -63 -29 -182 -88
-265 -130 -82 -42 -168 -83 -190 -90 -104 -34 -249 -123 -279 -172 -20 -33
-21 -97 0 -126 39 -57 108 -63 189 -17 22 12 74 33 115 45 88 26 226 97 360
185 52 34 151 98 220 142 113 71 466 329 580 423 25 21 110 74 190 117 454
250 781 447 975 587 163 117 327 222 371 236 68 22 117 51 184 110 67 58 117
91 230 152 36 19 82 46 103 58 l39 23 -26 -51 c-30 -60 -56 -152 -56 -200 0
-47 27 -100 61 -117 59 -31 150 -12 208 42 16 16 47 45 70 67 23 21 41 43 41
48 0 5 24 35 54 66 56 60 167 238 206 332 13 30 26 59 30 63 4 4 12 -25 19
-65 15 -88 40 -175 59 -205 30 -47 135 -51 184 -6 21 19 78 124 78 144 0 6 13
39 30 73 16 33 36 86 44 116 28 105 181 493 211 534 13 17 15 16 30 -19 46
-112 68 -282 41 -332 -8 -17 -19 -63 -22 -101 -6 -66 -5 -70 22 -100 27 -28
49 -36 97 -33 10 1 32 14 48 30 25 25 29 37 29 83 0 29 -5 73 -11 96 -12 56
14 175 78 352 69 188 123 290 155 290 12 0 57 -52 58 -67 0 -6 16 -42 37 -80
20 -37 69 -133 109 -213 76 -150 154 -259 204 -285 49 -25 121 -19 166 13 21
16 44 40 50 53 34 72 67 173 73 225 5 32 20 103 35 158 14 54 26 110 26 124 0
56 26 -15 51 -138 20 -99 59 -154 122 -171 33 -9 45 -7 85 13 47 23 76 63 117
158 9 19 21 44 27 55 7 11 26 45 44 75 56 95 149 240 155 240 3 0 18 -42 34
-92 26 -84 35 -99 90 -155 101 -103 167 -108 317 -22 85 49 122 81 205 178
l30 34 7 -214 c3 -118 11 -259 16 -314 5 -62 5 -104 -1 -109 -5 -6 -9 -26 -9
-47 0 -80 97 -120 154 -63 35 35 36 91 2 125 -13 13 -31 48 -40 78 -21 72 -40
404 -31 548 l7 112 95 138 c157 229 177 261 270 444 63 124 104 219 136 320
67 211 67 212 74 364 5 115 3 147 -10 177 -30 71 -114 97 -188 58z m97 -182
c41 -80 -46 -404 -185 -683 -63 -128 -212 -377 -251 -418 -11 -12 17 166 45
282 29 120 108 392 136 467 30 79 129 253 184 322 28 34 51 62 52 62 1 0 10
-14 19 -32z m-6866 -4172 c0 -9 -499 -326 -565 -359 -72 -36 -195 -80 -202
-73 -3 2 6 11 19 20 13 9 50 36 83 59 92 65 291 176 485 270 200 97 180 88
180 83z"/>
<path d="M6827 5210 c-14 -11 -28 -28 -31 -38 -3 -10 -20 -23 -36 -29 -21 -8
-36 -25 -50 -55 -24 -54 -92 -133 -132 -154 -90 -46 -218 -215 -218 -286 0
-85 101 -130 167 -74 15 13 46 54 68 90 25 41 47 66 58 66 9 0 17 -6 17 -14 0
-28 50 -75 87 -82 53 -10 106 11 166 66 90 82 111 159 61 219 -14 17 -33 31
-42 31 -15 1 -15 2 0 11 29 16 39 47 45 130 5 77 5 79 -25 109 -37 37 -95 41
-135 10z"/>
</g>
</svg>
