<?xml version="1.0" encoding="utf-8"?>
<!-- Generator: Adobe Illustrator 22.0.0, SVG Export Plug-In . SVG Version: 6.00 Build 0)  -->
<svg version="1.1" xmlns="http://www.w3.org/2000/svg" xmlns:xlink="http://www.w3.org/1999/xlink" x="0px" y="0px"
	 viewBox="0 0 500 500" style="enable-background:new 0 0 500 500;" xml:space="preserve">
<style type="text/css">
	.st0{fill:#FFF4F4;}
</style>
<g id="Capa_1">
	<ellipse cx="250" cy="250" rx="200.5" ry="194.5"/>
</g>
<g id="D">
	<g>
		<path class="st0" d="M128.4,221v104.5H79.6V178.8h63.7c27.9,0,49.8,5.7,65.6,17c18.8,13.5,28.2,31.9,28.2,55.1
			c0,22.2-8,40.3-24.1,54.4c-16,14-36.7,21.1-62,21.1c-3,0-7.8-0.1-14.6-0.4v-43.1h7.8c28.5,0,42.7-10.6,42.7-31.9c0-20-14-30-42-30
			H128.4z"/>
	</g>
</g>
<g id="R">
	<g>
		<path class="st0" d="M316.9,217.1v107.2h-59V177.7h75.7c23,0,40.9,4.2,53.6,12.7c14.1,9.5,21.2,21.4,21.2,36
			c0,14.8-8.8,27.3-26.3,37.5l34,60.5h-61.9l-28.6-47.3v-37.7h4.6c12.4,0,18.6-3.9,18.6-11.8c0-6.9-7.2-10.4-21.5-10.4H316.9z"/>
	</g>
</g>
</svg>
