<?xml version="1.0" encoding="utf-8"?>
<!-- Generator: Adobe Illustrator 22.0.0, SVG Export Plug-In . SVG Version: 6.00 Build 0)  -->
<svg version="1.1" id="Capa_1" xmlns="http://www.w3.org/2000/svg" xmlns:xlink="http://www.w3.org/1999/xlink" x="0px" y="0px"
	 viewBox="0 0 500 500" style="enable-background:new 0 0 500 500;" xml:space="preserve">
<style type="text/css">
	.st0{fill:#00BFFF;}
	.st1{fill:#FFF4F4;}
</style>
<g id="Capa_1_1_">
	<ellipse class="st0" cx="250" cy="245.2" rx="238.3" ry="242.7"/>
</g>
<g id="D">
	<g>
		<path d="M118.9,190.2v149.4H56V129.9h82.1c36,0,64.2,8.1,84.6,24.3c24.2,19.3,36.3,45.6,36.3,78.8c0,31.7-10.3,57.6-31.1,77.8
			c-20.6,20-47.3,30.2-79.9,30.2c-3.9,0-10.1-0.1-18.8-0.6v-61.6h10.1c36.7,0,55-15.2,55-45.6c0-28.6-18-42.9-54.1-42.9H118.9z"/>
	</g>
</g>
<g id="R">
	<g>
		<path class="st1" d="M337.6,191.7v149.1h-65.7V136.9h84.3c25.6,0,45.5,5.8,59.7,17.7c15.7,13.2,23.6,29.8,23.6,50.1
			c0,20.6-9.8,38-29.3,52.1l37.8,84.1h-68.9l-31.8-65.8v-52.4h5.1c13.8,0,20.7-5.4,20.7-16.4c0-9.6-8-14.5-23.9-14.5h-11.6V191.7z"
			/>
	</g>
</g>
</svg>
